<svg id="visual" viewBox="0 0 960 540" width="960" height="540" xmlns="http://www.w3.org/2000/svg" xmlns:xlink="http://www.w3.org/1999/xlink" version="1.1"><rect x="0" y="0" width="960" height="540" fill="#001122"></rect><defs><linearGradient id="grad1_0" x1="43.8%" y1="0%" x2="100%" y2="100%"><stop offset="14.444444444444446%" stop-color="#c33f5e" stop-opacity="1"></stop><stop offset="85.55555555555554%" stop-color="#c33f5e" stop-opacity="1"></stop></linearGradient></defs><defs><linearGradient id="grad1_1" x1="43.8%" y1="0%" x2="100%" y2="100%"><stop offset="14.444444444444446%" stop-color="#c33f5e" stop-opacity="1"></stop><stop offset="85.55555555555554%" stop-color="#001122" stop-opacity="1"></stop></linearGradient></defs><defs><linearGradient id="grad2_0" x1="0%" y1="0%" x2="56.3%" y2="100%"><stop offset="14.444444444444446%" stop-color="#c33f5e" stop-opacity="1"></stop><stop offset="85.55555555555554%" stop-color="#c33f5e" stop-opacity="1"></stop></linearGradient></defs><defs><linearGradient id="grad2_1" x1="0%" y1="0%" x2="56.3%" y2="100%"><stop offset="14.444444444444446%" stop-color="#001122" stop-opacity="1"></stop><stop offset="85.55555555555554%" stop-color="#c33f5e" stop-opacity="1"></stop></linearGradient></defs><g transform="translate(960, 0)"><path d="M0 378C-27.5 352 -55 326.1 -84.9 316.8C-114.8 307.5 -147.2 314.9 -179.5 310.9C-211.8 306.9 -243.9 291.4 -267.3 267.3C-290.7 243.2 -305.4 210.5 -308.3 178C-311.2 145.5 -302.3 113.2 -312 83.6C-321.6 54 -349.8 27 -378 0L0 0Z" fill="#552e5e"></path><path d="M0 189C-13.7 176 -27.5 163 -42.4 158.4C-57.4 153.8 -73.6 157.5 -89.7 155.5C-105.9 153.4 -121.9 145.7 -133.6 133.6C-145.3 121.6 -152.7 105.2 -154.2 89C-155.6 72.8 -151.2 56.6 -156 41.8C-160.8 27 -174.9 13.5 -189 0L0 0Z" fill="#c33f5e"></path></g><g transform="translate(0, 540)"><path d="M0 -378C31.5 -362.4 63 -346.8 88 -328.4C113 -310 131.6 -288.7 162.5 -281.5C193.4 -274.2 236.5 -280.9 267.3 -267.3C298.1 -253.7 316.6 -219.7 322.2 -186C327.7 -152.3 320.3 -118.7 327.4 -87.7C334.6 -56.8 356.3 -28.4 378 0L0 0Z" fill="#552e5e"></path><path d="M0 -189C15.7 -181.2 31.5 -173.4 44 -164.2C56.5 -155 65.8 -144.4 81.2 -140.7C96.7 -137.1 118.2 -140.4 133.6 -133.6C149 -126.8 158.3 -109.9 161.1 -93C163.9 -76.1 160.2 -59.4 163.7 -43.9C167.3 -28.4 178.1 -14.2 189 0L0 0Z" fill="#c33f5e"></path></g></svg>