<svg id="visual" viewBox="0 0 900 600" width="900" height="600" xmlns="http://www.w3.org/2000/svg" xmlns:xlink="http://www.w3.org/1999/xlink" version="1.1"><rect x="0" y="0" width="900" height="600" fill="#003b6b"></rect><path d="M0 377L21.5 385.8C43 394.7 86 412.3 128.8 413.2C171.7 414 214.3 398 257.2 392C300 386 343 390 385.8 385.8C428.7 381.7 471.3 369.3 514.2 364.2C557 359 600 361 642.8 374.3C685.7 387.7 728.3 412.3 771.2 422.3C814 432.3 857 427.7 878.5 425.3L900 423L900 601L878.5 601C857 601 814 601 771.2 601C728.3 601 685.7 601 642.8 601C600 601 557 601 514.2 601C471.3 601 428.7 601 385.8 601C343 601 300 601 257.2 601C214.3 601 171.7 601 128.8 601C86 601 43 601 21.5 601L0 601Z" fill="#a782b7"></path><path d="M0 439L21.5 437.5C43 436 86 433 128.8 433.7C171.7 434.3 214.3 438.7 257.2 446.3C300 454 343 465 385.8 459.2C428.7 453.3 471.3 430.7 514.2 421.2C557 411.7 600 415.3 642.8 425C685.7 434.7 728.3 450.3 771.2 458.7C814 467 857 468 878.5 468.5L900 469L900 601L878.5 601C857 601 814 601 771.2 601C728.3 601 685.7 601 642.8 601C600 601 557 601 514.2 601C471.3 601 428.7 601 385.8 601C343 601 300 601 257.2 601C214.3 601 171.7 601 128.8 601C86 601 43 601 21.5 601L0 601Z" fill="#b272a8"></path><path d="M0 446L21.5 448.7C43 451.3 86 456.7 128.8 457.7C171.7 458.7 214.3 455.3 257.2 457.5C300 459.7 343 467.3 385.8 475.8C428.7 484.3 471.3 493.7 514.2 496.3C557 499 600 495 642.8 493C685.7 491 728.3 491 771.2 483.3C814 475.7 857 460.3 878.5 452.7L900 445L900 601L878.5 601C857 601 814 601 771.2 601C728.3 601 685.7 601 642.8 601C600 601 557 601 514.2 601C471.3 601 428.7 601 385.8 601C343 601 300 601 257.2 601C214.3 601 171.7 601 128.8 601C86 601 43 601 21.5 601L0 601Z" fill="#bb6194"></path><path d="M0 497L21.5 499.7C43 502.3 86 507.7 128.8 505.3C171.7 503 214.3 493 257.2 497.8C300 502.7 343 522.3 385.8 529.7C428.7 537 471.3 532 514.2 525C557 518 600 509 642.8 506.8C685.7 504.7 728.3 509.3 771.2 510.8C814 512.3 857 510.7 878.5 509.8L900 509L900 601L878.5 601C857 601 814 601 771.2 601C728.3 601 685.7 601 642.8 601C600 601 557 601 514.2 601C471.3 601 428.7 601 385.8 601C343 601 300 601 257.2 601C214.3 601 171.7 601 128.8 601C86 601 43 601 21.5 601L0 601Z" fill="#c14f7b"></path><path d="M0 565L21.5 561.3C43 557.7 86 550.3 128.8 548.8C171.7 547.3 214.3 551.7 257.2 553.8C300 556 343 556 385.8 553C428.7 550 471.3 544 514.2 544C557 544 600 550 642.8 555.8C685.7 561.7 728.3 567.3 771.2 565.2C814 563 857 553 878.5 548L900 543L900 601L878.5 601C857 601 814 601 771.2 601C728.3 601 685.7 601 642.8 601C600 601 557 601 514.2 601C471.3 601 428.7 601 385.8 601C343 601 300 601 257.2 601C214.3 601 171.7 601 128.8 601C86 601 43 601 21.5 601L0 601Z" fill="#c33f5e"></path></svg>